# xmcd
#
# Track frame offsets:
# 183
# 10258
# 29558
# 47453
# 63988
# 79975
# 94635
# 110053
# 127950
# 150463
# 161885
#
# Disc length: 2505 seconds
#
#
# Revision: 0
# Processed by: cddbd v1.5PL3 Copyright (c) Steve Scherf et al.
# Submitted via: FreeRIP 2.60 
#
DISCID=8609c70b
DTITLE=Ostbahn - Kurti and die Chefpartie - A Schene Leich
DYEAR=1988
DGENRE=Austro Pop
TTITLE0=I hea di klopfn
TTITLE1=Frog net wos muagn is
TTITLE2=Na, so wirst ned oid
TTITLE3=Schee, Schee, Schee
TTITLE4=Neiche Schoin
TTITLE5=Wirklich wahr
TTITLE6=Chili con Carne
TTITLE7=Es gibt Strassn
TTITLE8=Überstar
TTITLE9=Nimm die Fiass in d' Händ
TTITLE10=Nochtschicht
EXTD=
EXTT0=
EXTT1=
EXTT2=
EXTT3=
EXTT4=
EXTT5=
EXTT6=
EXTT7=
EXTT8=
EXTT9=
EXTT10=
PLAYORDER=
